<svg version="1.1" id="Layer_1" xmlns="http://www.w3.org/2000/svg" xmlns:xlink="http://www.w3.org/1999/xlink" x="0px" y="0px"
	 width="100%" viewBox="0 0 1080 1080" enable-background="new 0 0 1080 1080" xml:space="preserve">
<path fill="#000000" opacity="1.000000" stroke="none" 
	d="
M721.000000,1081.000000 
	C480.694336,1081.000000 240.888687,1081.000000 1.041513,1081.000000 
	C1.041513,721.069214 1.041513,361.138428 1.041513,1.103826 
	C360.889221,1.103826 720.778442,1.103826 1080.833862,1.103826 
	C1080.833862,360.999939 1080.833862,720.999939 1080.833862,1081.000000 
	C961.137939,1081.000000 841.318970,1081.000000 721.000000,1081.000000 
M617.744324,280.271240 
	C588.885742,201.644882 560.027161,123.018532 531.010986,43.962746 
	C389.756897,95.695511 248.982986,147.252411 107.973145,198.895737 
	C108.598549,201.002502 108.972733,202.575439 109.526726,204.082260 
	C117.672836,226.239395 125.898285,248.367508 133.990219,270.544342 
	C140.832443,289.296234 147.426361,308.138916 154.309662,326.875488 
	C164.776138,355.365601 175.402206,383.797058 185.951187,412.256866 
	C189.619385,422.153198 193.259872,432.059845 195.986954,441.988953 
	C180.080521,441.988953 164.174072,441.988953 148.417831,441.988953 
	C148.417831,607.828003 148.417831,772.726746 148.417831,937.630615 
	C371.733093,937.630615 594.630310,937.630615 817.647339,937.630615 
	C817.647339,897.029846 817.647339,856.799500 817.647339,815.965454 
	C672.072754,815.965454 526.848877,815.965454 381.373016,815.965454 
	C381.373016,740.139893 381.373016,664.919495 381.373016,589.103638 
	C383.805267,589.103638 385.928772,589.103638 388.052307,589.103638 
	C528.713440,589.103638 669.374512,589.104309 810.035645,589.097656 
	C812.366821,589.097534 814.697937,589.008545 817.950928,589.118347 
	C844.200623,589.118347 870.450256,589.118347 897.038208,589.118347 
	C897.038208,649.136597 897.038208,708.253418 897.038208,768.206238 
	C927.371948,770.910278 957.436218,773.590332 988.060303,776.320312 
	C988.060303,773.412720 987.909119,771.433411 988.084595,769.483521 
	C989.352844,755.390137 990.716492,741.305420 991.989380,727.212463 
	C992.746582,718.829468 993.338379,710.431458 994.103149,702.049255 
	C995.359924,688.274231 996.736633,674.510254 997.985413,660.734558 
	C998.759888,652.190369 999.327087,643.627380 1000.102112,635.083252 
	C1001.351685,621.307556 1002.736145,607.544250 1003.985107,593.768555 
	C1004.759827,585.224487 1005.303772,576.659241 1006.104431,568.117859 
	C1007.333740,555.002930 1008.774841,541.907654 1009.972107,528.790039 
	C1010.796448,519.758728 1011.277954,510.696594 1012.060059,501.660980 
	C1013.309509,487.225616 1014.694580,472.802063 1015.996521,458.371185 
	C1016.722290,450.326294 1017.337219,442.271118 1018.106140,434.230499 
	C1019.359192,421.127441 1020.778931,408.039948 1021.971558,394.931610 
	C1022.794189,385.890411 1023.221497,376.813049 1024.059448,367.773560 
	C1025.259644,354.827789 1026.710938,341.905487 1027.973511,328.965179 
	C1028.348389,325.122955 1028.449341,321.253998 1028.686279,317.219360 
	C1018.268250,316.434906 1008.228699,315.790314 998.211365,314.897369 
	C984.764343,313.698700 971.340027,312.245636 957.895081,311.022095 
	C949.022583,310.214661 940.124207,309.693756 931.249207,308.910828 
	C917.136292,307.665802 903.035339,306.286285 888.925232,305.008484 
	C880.715393,304.265015 872.492737,303.662415 864.284607,302.901794 
	C850.682373,301.641327 837.092957,300.240601 823.487061,299.022461 
	C814.443909,298.212860 805.373291,297.710754 796.329651,296.905670 
	C782.549866,295.678894 768.786804,294.265839 755.008972,293.015778 
	C746.463013,292.240417 737.892761,291.726166 729.351562,290.905273 
	C716.734802,289.692627 704.144897,288.193573 691.523132,287.040710 
	C682.001953,286.170990 672.439636,285.759064 662.911743,284.953094 
	C647.969482,283.689178 633.040771,282.264832 617.744324,280.271240 
M624.026306,731.500244 
	C624.026306,725.389771 624.026306,719.279297 624.026306,712.849609 
	C627.811768,712.849609 631.134399,713.107849 634.398438,712.780701 
	C638.031494,712.416504 640.014832,713.665039 641.690430,717.002502 
	C647.051270,727.680237 652.747681,738.192078 658.481934,748.676453 
	C659.220215,750.026367 660.887756,751.661316 662.221252,751.752380 
	C667.435852,752.108582 672.689148,751.897888 678.775208,751.897888 
	C671.153015,738.018127 663.959656,724.919250 656.742737,711.777527 
	C670.419556,705.787720 676.694275,694.514160 674.617065,680.575928 
	C672.588745,666.965210 664.272339,657.976135 651.317444,657.321899 
	C637.230408,656.610474 623.079590,657.160461 608.696411,657.160461 
	C608.696411,688.761414 608.696411,720.140198 608.696411,751.641052 
	C613.879517,751.641052 618.781311,751.641052 624.026306,751.641052 
	C624.026306,745.091614 624.026306,738.795776 624.026306,731.500244 
M488.312683,658.130127 
	C477.392853,655.177429 466.554749,655.141846 456.035248,659.626709 
	C445.118744,664.280823 439.557648,674.161072 440.450500,686.633545 
	C441.359802,699.335632 446.502411,705.697632 459.249298,709.070129 
	C466.789825,711.065125 474.540558,712.262024 482.090240,714.226990 
	C487.778931,715.707642 490.660767,719.432556 490.909271,724.380310 
	C491.170135,729.573914 488.494568,733.902649 483.053802,735.869446 
	C479.824249,737.036926 476.294250,737.686768 472.856842,737.907349 
	C462.229858,738.589355 452.707062,735.214294 444.090057,728.772583 
	C441.209900,733.130798 438.602478,737.076294 435.872467,741.207275 
	C450.755219,752.206787 466.800842,755.186584 484.071594,751.283386 
	C498.857788,747.941772 506.199646,738.774902 506.238312,724.692017 
	C506.277863,710.297485 499.879364,702.845764 484.179443,699.005798 
	C481.596130,698.373962 479.008118,697.761108 476.427094,697.120178 
	C471.919098,696.000610 467.275543,695.240417 462.948364,693.631592 
	C458.660309,692.037292 455.906067,688.835876 455.901764,683.761169 
	C455.897430,678.625183 458.299957,675.053833 462.832733,673.238586 
	C465.860016,672.026306 469.221222,671.370117 472.487152,671.084534 
	C481.476624,670.298340 489.301697,673.755310 496.870514,678.895386 
	C499.457214,674.511292 501.865753,670.429199 504.760651,665.522705 
	C499.227692,663.007019 494.149750,660.698181 488.312683,658.130127 
M775.068726,691.500000 
	C775.068726,711.558044 775.068726,731.616028 775.068726,751.559082 
	C780.673523,751.559082 785.573059,751.559082 790.860229,751.559082 
	C790.860229,739.313660 790.860229,727.401306 790.860229,715.017944 
	C799.194763,715.017944 807.147583,715.243042 815.083252,714.969604 
	C830.196411,714.449097 840.441589,703.825500 841.517090,687.925232 
	C842.556702,672.554016 833.735291,659.510254 819.064880,658.108765 
	C804.638367,656.730469 789.977234,657.808167 775.068726,657.808167 
	C775.068726,668.595886 775.068726,679.547913 775.068726,691.500000 
M757.441284,751.896606 
	C759.848511,751.896606 762.255676,751.896606 765.150085,751.896606 
	C753.143250,719.924500 741.376465,688.591553 729.596191,657.222656 
	C725.686096,657.222656 722.043335,657.222656 718.186707,657.222656 
	C706.398315,688.639099 694.610535,720.053955 682.738953,751.692200 
	C688.812683,751.692200 694.110962,751.692200 699.512329,751.692200 
	C701.194092,746.848633 702.964111,742.196228 704.398621,737.442688 
	C705.185425,734.835144 706.324402,733.770447 709.252563,733.835754 
	C719.073669,734.054932 728.903748,733.997559 738.727966,733.865845 
	C741.296997,733.831482 742.528870,734.538330 743.298584,737.149841 
	C744.776123,742.162659 746.758118,747.026672 748.510803,751.896606 
	C751.518738,751.896606 754.012512,751.896606 757.441284,751.896606 
M530.758545,667.284790 
	C528.452087,672.724487 524.539429,678.053650 524.155762,683.625732 
	C523.198792,697.523071 522.819885,711.626343 524.107788,725.470398 
	C525.743164,743.050903 539.784973,753.569214 558.042847,752.866028 
	C574.663940,752.225830 588.270874,739.169128 589.584351,722.502930 
	C584.476013,722.502930 579.377258,722.502930 574.272827,722.502930 
	C573.872192,723.432190 573.525085,724.186035 573.218628,724.956055 
	C569.534058,734.214233 563.303162,738.126038 553.885315,737.085693 
	C546.105286,736.226318 540.323547,730.823669 539.760803,721.514526 
	C539.050049,709.757080 539.214600,697.877686 540.022888,686.121155 
	C540.576538,678.067932 546.203064,672.984009 553.226318,671.920349 
	C561.467102,670.672180 568.050537,673.922791 571.927979,681.231873 
	C572.854370,682.978088 573.587891,684.826599 574.263245,686.306152 
	C579.620239,686.306152 584.682556,686.306152 590.057556,686.306152 
	C586.975525,672.393433 580.558228,661.529663 566.462524,657.619141 
	C553.217529,653.944641 541.054382,656.345459 530.758545,667.284790 
z"/>
<path fill="#464039" opacity="1.000000" stroke="none" 
	d="
M817.029114,588.960999 
	C814.697937,589.008545 812.366821,589.097534 810.035645,589.097656 
	C669.374512,589.104309 528.713440,589.103638 388.052307,589.103638 
	C385.928772,589.103638 383.805267,589.103638 381.373016,589.103638 
	C381.373016,664.919495 381.373016,740.139893 381.373016,815.965454 
	C526.848877,815.965454 672.072754,815.965454 817.647339,815.965454 
	C817.647339,856.799500 817.647339,897.029846 817.647339,937.630615 
	C594.630310,937.630615 371.733093,937.630615 148.417831,937.630615 
	C148.417831,772.726746 148.417831,607.828003 148.417831,441.988953 
	C164.174072,441.988953 180.080521,441.988953 196.841324,442.145477 
	C199.152817,442.534271 200.609909,442.969513 202.067062,442.969727 
	C286.414520,442.981018 370.761963,442.956268 455.571167,442.938171 
	C574.427185,442.944519 692.821472,442.969971 811.215698,442.864319 
	C815.637634,442.860382 817.177673,443.809387 817.158142,448.586914 
	C816.966492,495.377655 817.034729,542.169495 817.029114,588.960999 
z"/>
<path fill="#686868" opacity="1.000000" stroke="none" 
	d="
M817.489990,589.039673 
	C817.034729,542.169495 816.966492,495.377655 817.158142,448.586914 
	C817.177673,443.809387 815.637634,442.860382 811.215698,442.864319 
	C692.821472,442.969971 574.427185,442.944519 455.537354,442.496552 
	C455.362122,437.591827 455.651672,433.129364 456.009216,428.672363 
	C456.724640,419.753510 457.415039,410.831879 458.229401,401.921814 
	C459.434479,388.736359 460.779480,375.563721 461.986023,362.378387 
	C462.786163,353.634247 463.397034,344.872864 464.184204,336.127441 
	C465.415894,322.443848 466.728546,308.767578 468.000061,295.087555 
	C468.823975,286.223480 469.635895,277.358276 470.508179,267.897034 
	C474.388092,268.284088 477.953491,268.687195 481.527557,268.987854 
	C494.238190,270.057037 506.956207,271.039795 519.662903,272.152740 
	C533.679932,273.380463 547.685974,274.732269 561.699768,275.997772 
	C570.608582,276.802277 579.522888,277.545837 588.434387,278.320801 
	C598.325256,279.180908 608.215698,280.045685 618.106323,280.908417 
	C633.040771,282.264832 647.969482,283.689178 662.911743,284.953094 
	C672.439636,285.759064 682.001953,286.170990 691.523132,287.040710 
	C704.144897,288.193573 716.734802,289.692627 729.351562,290.905273 
	C737.892761,291.726166 746.463013,292.240417 755.008972,293.015778 
	C768.786804,294.265839 782.549866,295.678894 796.329651,296.905670 
	C805.373291,297.710754 814.443909,298.212860 823.487061,299.022461 
	C837.092957,300.240601 850.682373,301.641327 864.284607,302.901794 
	C872.492737,303.662415 880.715393,304.265015 888.925232,305.008484 
	C903.035339,306.286285 917.136292,307.665802 931.249207,308.910828 
	C940.124207,309.693756 949.022583,310.214661 957.895081,311.022095 
	C971.340027,312.245636 984.764343,313.698700 998.211365,314.897369 
	C1008.228699,315.790314 1018.268250,316.434906 1028.686279,317.219360 
	C1028.449341,321.253998 1028.348389,325.122955 1027.973511,328.965179 
	C1026.710938,341.905487 1025.259644,354.827789 1024.059448,367.773560 
	C1023.221497,376.813049 1022.794189,385.890411 1021.971558,394.931610 
	C1020.778931,408.039948 1019.359192,421.127441 1018.106140,434.230499 
	C1017.337219,442.271118 1016.722290,450.326294 1015.996521,458.371185 
	C1014.694580,472.802063 1013.309509,487.225616 1012.060059,501.660980 
	C1011.277954,510.696594 1010.796448,519.758728 1009.972107,528.790039 
	C1008.774841,541.907654 1007.333740,555.002930 1006.104431,568.117859 
	C1005.303772,576.659241 1004.759827,585.224487 1003.985107,593.768555 
	C1002.736145,607.544250 1001.351685,621.307556 1000.102112,635.083252 
	C999.327087,643.627380 998.759888,652.190369 997.985413,660.734558 
	C996.736633,674.510254 995.359924,688.274231 994.103149,702.049255 
	C993.338379,710.431458 992.746582,718.829468 991.989380,727.212463 
	C990.716492,741.305420 989.352844,755.390137 988.084595,769.483521 
	C987.909119,771.433411 988.060303,773.412720 988.060303,776.320312 
	C957.436218,773.590332 927.371948,770.910278 897.038208,768.206238 
	C897.038208,708.253418 897.038208,649.136597 897.038208,589.118347 
	C870.450256,589.118347 844.200623,589.118347 817.489990,589.039673 
z"/>
<path fill="#464646" opacity="1.000000" stroke="none" 
	d="
M617.925293,280.589844 
	C608.215698,280.045685 598.325256,279.180908 588.434387,278.320801 
	C579.522888,277.545837 570.608582,276.802277 561.699768,275.997772 
	C547.685974,274.732269 533.679932,273.380463 519.662903,272.152740 
	C506.956207,271.039795 494.238190,270.057037 481.527557,268.987854 
	C477.953491,268.687195 474.388092,268.284088 470.508179,267.897034 
	C469.635895,277.358276 468.823975,286.223480 468.000061,295.087555 
	C466.728546,308.767578 465.415894,322.443848 464.184204,336.127441 
	C463.397034,344.872864 462.786163,353.634247 461.986023,362.378387 
	C460.779480,375.563721 459.434479,388.736359 458.229401,401.921814 
	C457.415039,410.831879 456.724640,419.753510 456.009216,428.672363 
	C455.651672,433.129364 455.362122,437.591827 455.075623,442.493408 
	C370.761963,442.956268 286.414520,442.981018 202.067062,442.969727 
	C200.609909,442.969513 199.152817,442.534271 197.304352,442.131897 
	C193.259872,432.059845 189.619385,422.153198 185.951187,412.256866 
	C175.402206,383.797058 164.776138,355.365601 154.309662,326.875488 
	C147.426361,308.138916 140.832443,289.296234 133.990219,270.544342 
	C125.898285,248.367508 117.672836,226.239395 109.526726,204.082260 
	C108.972733,202.575439 108.598549,201.002502 107.973145,198.895737 
	C248.982986,147.252411 389.756897,95.695511 531.010986,43.962746 
	C560.027161,123.018532 588.885742,201.644882 617.925293,280.589844 
z"/>
<path fill="#FAFAFA" opacity="1.000000" stroke="none" 
	d="
M624.026306,732.000122 
	C624.026306,738.795776 624.026306,745.091614 624.026306,751.641052 
	C618.781311,751.641052 613.879517,751.641052 608.696411,751.641052 
	C608.696411,720.140198 608.696411,688.761414 608.696411,657.160461 
	C623.079590,657.160461 637.230408,656.610474 651.317444,657.321899 
	C664.272339,657.976135 672.588745,666.965210 674.617065,680.575928 
	C676.694275,694.514160 670.419556,705.787720 656.742737,711.777527 
	C663.959656,724.919250 671.153015,738.018127 678.775208,751.897888 
	C672.689148,751.897888 667.435852,752.108582 662.221252,751.752380 
	C660.887756,751.661316 659.220215,750.026367 658.481934,748.676453 
	C652.747681,738.192078 647.051270,727.680237 641.690430,717.002502 
	C640.014832,713.665039 638.031494,712.416504 634.398438,712.780701 
	C631.134399,713.107849 627.811768,712.849609 624.026306,712.849609 
	C624.026306,719.279297 624.026306,725.389771 624.026306,732.000122 
M624.020447,684.501648 
	C624.020447,688.906677 624.020447,693.311707 624.020447,697.891357 
	C632.324341,697.891357 639.947632,698.043030 647.561768,697.844971 
	C654.045105,697.676331 657.869690,693.367920 658.540833,686.050842 
	C659.171021,679.179810 655.619080,672.750977 649.868469,672.340942 
	C641.355164,671.734131 632.766663,672.183960 624.020447,672.183960 
	C624.020447,676.245972 624.020447,679.879028 624.020447,684.501648 
z"/>
<path fill="#FBFBFB" opacity="1.000000" stroke="none" 
	d="
M488.692261,658.259766 
	C494.149750,660.698181 499.227692,663.007019 504.760651,665.522705 
	C501.865753,670.429199 499.457214,674.511292 496.870514,678.895386 
	C489.301697,673.755310 481.476624,670.298340 472.487152,671.084534 
	C469.221222,671.370117 465.860016,672.026306 462.832733,673.238586 
	C458.299957,675.053833 455.897430,678.625183 455.901764,683.761169 
	C455.906067,688.835876 458.660309,692.037292 462.948364,693.631592 
	C467.275543,695.240417 471.919098,696.000610 476.427094,697.120178 
	C479.008118,697.761108 481.596130,698.373962 484.179443,699.005798 
	C499.879364,702.845764 506.277863,710.297485 506.238312,724.692017 
	C506.199646,738.774902 498.857788,747.941772 484.071594,751.283386 
	C466.800842,755.186584 450.755219,752.206787 435.872467,741.207275 
	C438.602478,737.076294 441.209900,733.130798 444.090057,728.772583 
	C452.707062,735.214294 462.229858,738.589355 472.856842,737.907349 
	C476.294250,737.686768 479.824249,737.036926 483.053802,735.869446 
	C488.494568,733.902649 491.170135,729.573914 490.909271,724.380310 
	C490.660767,719.432556 487.778931,715.707642 482.090240,714.226990 
	C474.540558,712.262024 466.789825,711.065125 459.249298,709.070129 
	C446.502411,705.697632 441.359802,699.335632 440.450500,686.633545 
	C439.557648,674.161072 445.118744,664.280823 456.035248,659.626709 
	C466.554749,655.141846 477.392853,655.177429 488.692261,658.259766 
z"/>
<path fill="#FAFAFA" opacity="1.000000" stroke="none" 
	d="
M775.068726,691.000000 
	C775.068726,679.547913 775.068726,668.595886 775.068726,657.808167 
	C789.977234,657.808167 804.638367,656.730469 819.064880,658.108765 
	C833.735291,659.510254 842.556702,672.554016 841.517090,687.925232 
	C840.441589,703.825500 830.196411,714.449097 815.083252,714.969604 
	C807.147583,715.243042 799.194763,715.017944 790.860229,715.017944 
	C790.860229,727.401306 790.860229,739.313660 790.860229,751.559082 
	C785.573059,751.559082 780.673523,751.559082 775.068726,751.559082 
	C775.068726,731.616028 775.068726,711.558044 775.068726,691.000000 
M821.389099,696.945801 
	C828.679199,687.693420 826.050110,674.187683 816.038330,672.675476 
	C807.841003,671.437378 799.307678,672.423340 790.961548,672.423340 
	C790.961548,681.734131 790.961548,690.680298 790.961548,700.100464 
	C798.406738,700.100464 805.692627,700.329773 812.950684,699.980103 
	C815.608459,699.852051 818.200134,698.351257 821.389099,696.945801 
z"/>
<path fill="#FBFBFB" opacity="1.000000" stroke="none" 
	d="
M756.973816,751.896606 
	C754.012512,751.896606 751.518738,751.896606 748.510803,751.896606 
	C746.758118,747.026672 744.776123,742.162659 743.298584,737.149841 
	C742.528870,734.538330 741.296997,733.831482 738.727966,733.865845 
	C728.903748,733.997559 719.073669,734.054932 709.252563,733.835754 
	C706.324402,733.770447 705.185425,734.835144 704.398621,737.442688 
	C702.964111,742.196228 701.194092,746.848633 699.512329,751.692200 
	C694.110962,751.692200 688.812683,751.692200 682.738953,751.692200 
	C694.610535,720.053955 706.398315,688.639099 718.186707,657.222656 
	C722.043335,657.222656 725.686096,657.222656 729.596191,657.222656 
	C741.376465,688.591553 753.143250,719.924500 765.150085,751.896606 
	C762.255676,751.896606 759.848511,751.896606 756.973816,751.896606 
M729.345703,718.970825 
	C731.742615,718.970825 734.139465,718.970825 736.985413,718.970825 
	C732.595032,706.403687 728.430908,694.483948 723.854431,681.384033 
	C719.255676,694.711731 715.130127,706.668030 710.885010,718.970825 
	C717.103210,718.970825 722.745728,718.970825 729.345703,718.970825 
z"/>
<path fill="#FAFAFA" opacity="1.000000" stroke="none" 
	d="
M530.973511,666.997986 
	C541.054382,656.345459 553.217529,653.944641 566.462524,657.619141 
	C580.558228,661.529663 586.975525,672.393433 590.057556,686.306152 
	C584.682556,686.306152 579.620239,686.306152 574.263245,686.306152 
	C573.587891,684.826599 572.854370,682.978088 571.927979,681.231873 
	C568.050537,673.922791 561.467102,670.672180 553.226318,671.920349 
	C546.203064,672.984009 540.576538,678.067932 540.022888,686.121155 
	C539.214600,697.877686 539.050049,709.757080 539.760803,721.514526 
	C540.323547,730.823669 546.105286,736.226318 553.885315,737.085693 
	C563.303162,738.126038 569.534058,734.214233 573.218628,724.956055 
	C573.525085,724.186035 573.872192,723.432190 574.272827,722.502930 
	C579.377258,722.502930 584.476013,722.502930 589.584351,722.502930 
	C588.270874,739.169128 574.663940,752.225830 558.042847,752.866028 
	C539.784973,753.569214 525.743164,743.050903 524.107788,725.470398 
	C522.819885,711.626343 523.198792,697.523071 524.155762,683.625732 
	C524.539429,678.053650 528.452087,672.724487 530.973511,666.997986 
z"/>
<path fill="#030303" opacity="1.000000" stroke="none" 
	d="
M624.020447,684.006836 
	C624.020447,679.879028 624.020447,676.245972 624.020447,672.183960 
	C632.766663,672.183960 641.355164,671.734131 649.868469,672.340942 
	C655.619080,672.750977 659.171021,679.179810 658.540833,686.050842 
	C657.869690,693.367920 654.045105,697.676331 647.561768,697.844971 
	C639.947632,698.043030 632.324341,697.891357 624.020447,697.891357 
	C624.020447,693.311707 624.020447,688.906677 624.020447,684.006836 
z"/>
<path fill="#020202" opacity="1.000000" stroke="none" 
	d="
M821.105530,697.211182 
	C818.200134,698.351257 815.608459,699.852051 812.950684,699.980103 
	C805.692627,700.329773 798.406738,700.100464 790.961548,700.100464 
	C790.961548,690.680298 790.961548,681.734131 790.961548,672.423340 
	C799.307678,672.423340 807.841003,671.437378 816.038330,672.675476 
	C826.050110,674.187683 828.679199,687.693420 821.105530,697.211182 
z"/>
<path fill="#060606" opacity="1.000000" stroke="none" 
	d="
M728.867004,718.970825 
	C722.745728,718.970825 717.103210,718.970825 710.885010,718.970825 
	C715.130127,706.668030 719.255676,694.711731 723.854431,681.384033 
	C728.430908,694.483948 732.595032,706.403687 736.985413,718.970825 
	C734.139465,718.970825 731.742615,718.970825 728.867004,718.970825 
z"/>
</svg>